<svg width="17" height="16" viewBox="0 0 17 16" fill="none" xmlns="http://www.w3.org/2000/svg">
<path d="M0.817983 1.27244L2.68301 3.13747L3.05521 3.50967C1.70552 4.56488 0.638037 5.96776 0 7.59145C1.41515 11.1824 4.90798 13.7264 8.99797 13.7264C10.2659 13.7264 11.4765 13.481 12.5849 13.0352L12.9326 13.3829L15.317 15.7714L16.36 14.7326L1.86093 0.229492L0.817983 1.27244ZM5.34153 5.79188L6.60533 7.05568C6.56852 7.23156 6.54398 7.40741 6.54398 7.59145C6.54398 8.94525 7.64417 10.0454 8.99797 10.0454C9.18202 10.0454 9.3579 10.0209 9.52968 9.98409L10.7935 11.2479C10.2495 11.5178 9.64421 11.6814 8.99797 11.6814C6.7403 11.6814 4.90798 9.84912 4.90798 7.59145C4.90798 6.94525 5.07159 6.33992 5.34153 5.79188Z" fill="black"/>
</svg>
